<svg width="43" height="38" viewBox="0 0 43 38" fill="none" xmlns="http://www.w3.org/2000/svg">
<rect x="1" y="1" width="41" height="36" rx="4" stroke="white" stroke-width="2"/>
<rect x="5" y="3" width="7" height="7" rx="2" fill="white"/>
<rect x="5" y="11" width="7" height="7" rx="2" fill="white"/>
<rect x="5" y="20" width="7" height="7" rx="2" fill="white"/>
<rect x="5" y="28" width="7" height="7" rx="2" fill="white"/>
<rect x="31" y="3" width="7" height="7" rx="2" fill="white"/>
<rect x="31" y="11" width="7" height="7" rx="2" fill="white"/>
<rect x="31" y="20" width="7" height="7" rx="2" fill="white"/>
<rect x="31" y="28" width="7" height="7" rx="2" fill="white"/>
<rect x="23" y="3" width="7" height="7" rx="2" fill="white"/>
<rect x="23" y="11" width="7" height="7" rx="2" fill="white"/>
<rect x="23" y="20" width="7" height="7" rx="2" fill="white"/>
<rect x="23" y="28" width="7" height="7" rx="2" fill="white"/>
<rect x="13" y="3" width="7" height="7" rx="2" fill="white"/>
<rect x="13" y="11" width="7" height="7" rx="2" fill="white"/>
<rect x="13" y="20" width="7" height="7" rx="2" fill="white"/>
<rect x="13" y="28" width="7" height="7" rx="2" fill="white"/>
</svg>
